<svg xmlns="http://www.w3.org/2000/svg" width="940.58" height="87.25" viewBox="-1.10 -77.60 940.58 87.25" role="img" aria-labelledby="logo-title">
<title id="logo-title">sleekmotion — Copperplate logo concept</title>
<desc>Sleek in regular Copperplate, motion in Copperplate with a 15-degree oblique. Letterforms are vector outlines.</desc>
<path fill="#111318" d="M16.65 -22.95Q16.65 -22.349999999999998 16.575 -21.674999999999997Q16.5 -21.0 16.5 -20.25Q16.5 -18.0 19.35 -16.125Q22.2 -14.25 26.174999999999997 -12.975Q30.15 -11.7 34.125 -10.95Q38.1 -10.2 40.35 -10.2Q42.449999999999996 -10.2 45.525 -10.5Q48.6 -10.799999999999999 51.6 -11.774999999999999Q54.6 -12.75 56.7 -14.475Q58.8 -16.2 58.8 -19.05Q58.8 -22.349999999999998 55.125 -23.849999999999998Q51.449999999999996 -25.349999999999998 45.9 -26.174999999999997Q40.35 -27.0 33.9 -27.825Q27.45 -28.65 21.9 -30.525Q16.349999999999998 -32.4 12.674999999999999 -35.925Q9.0 -39.449999999999996 9.0 -45.9Q9.0 -55.5 16.95 -61.199999999999996Q24.9 -66.89999999999999 39.3 -66.89999999999999Q46.35 -66.89999999999999 51.375 -65.77499999999999Q56.4 -64.64999999999999 59.849999999999994 -63.3Q63.3 -61.949999999999996 65.475 -60.824999999999996Q67.64999999999999 -59.699999999999996 68.7 -59.699999999999996Q69.89999999999999 -59.699999999999996 70.5 -60.074999999999996Q71.1 -60.449999999999996 72.0 -60.9L73.64999999999999 -59.25L66.14999999999999 -45.15L63.449999999999996 -46.05Q63.3 -46.949999999999996 63.15 -47.849999999999994Q63.0 -48.75 61.8 -49.65Q58.8 -52.199999999999996 52.5 -54.0Q46.199999999999996 -55.8 38.4 -55.8Q35.4 -55.8 32.7 -55.425Q30.0 -55.05 27.9 -54.15Q25.8 -53.25 24.6 -51.825Q23.4 -50.4 23.4 -48.3Q23.4 -45.0 27.075 -43.575Q30.75 -42.15 36.3 -41.325Q41.85 -40.5 48.3 -39.675Q54.75 -38.85 60.3 -36.9Q65.85 -34.949999999999996 69.525 -31.199999999999996Q73.2 -27.45 73.2 -20.849999999999998Q73.2 -14.25 69.975 -10.05Q66.75 -5.85 61.95 -3.4499999999999997Q57.15 -1.05 51.375 -0.30000000000000004Q45.6 0.44999999999999996 40.5 0.44999999999999996Q35.4 0.44999999999999996 30.375 -0.525Q25.349999999999998 -1.5 21.224999999999998 -2.775Q17.099999999999998 -4.05 14.25 -5.175Q11.4 -6.3 10.799999999999999 -6.3Q9.75 -6.3 9.0 -5.3999999999999995L6.8999999999999995 -6.8999999999999995L13.799999999999999 -23.7Z M115.64999999999998 -66.0V-63.3Q112.19999999999999 -63.3 112.19999999999999 -61.05V-11.1H152.7Q154.5 -11.1 155.7 -11.925Q156.89999999999998 -12.75 156.89999999999998 -14.25H159.59999999999997V1.5H156.89999999999998Q156.89999999999998 0.3 155.7 0.15Q154.5 0.0 152.7 0.0H93.89999999999999V-2.6999999999999997Q97.79999999999998 -2.6999999999999997 97.79999999999998 -4.95V-61.05Q97.79999999999998 -63.3 93.89999999999999 -63.3V-66.0Z M235.2 -52.05Q235.2 -54.9 230.54999999999995 -54.9H193.94999999999996V-39.9H217.04999999999995Q219.59999999999997 -39.9 220.79999999999995 -40.275Q221.99999999999997 -40.65 221.99999999999997 -42.3H224.69999999999996V-26.4H221.69999999999996Q222.14999999999998 -28.05 220.49999999999997 -28.424999999999997Q218.84999999999997 -28.799999999999997 215.84999999999997 -28.799999999999997H193.94999999999996V-11.1H232.34999999999997Q234.14999999999998 -11.1 235.34999999999997 -11.925Q236.54999999999995 -12.75 236.54999999999995 -14.1H239.24999999999997V1.65H236.54999999999995Q236.54999999999995 0.3 235.34999999999997 0.15Q234.14999999999998 0.0 232.34999999999997 0.0H177.29999999999998V-2.6999999999999997Q178.04999999999998 -2.6999999999999997 178.79999999999998 -3.2249999999999996Q179.54999999999998 -3.75 179.54999999999998 -4.95V-61.05Q179.54999999999998 -62.25 178.79999999999998 -62.775Q178.04999999999998 -63.3 177.29999999999998 -63.3V-66.0H230.54999999999995Q235.2 -66.0 235.2 -68.7H237.89999999999998V-52.05Z M317.69999999999993 -52.05Q317.69999999999993 -54.9 313.04999999999995 -54.9H276.44999999999993V-39.9H299.54999999999995Q302.09999999999997 -39.9 303.29999999999995 -40.275Q304.49999999999994 -40.65 304.49999999999994 -42.3H307.19999999999993V-26.4H304.19999999999993Q304.6499999999999 -28.05 302.99999999999994 -28.424999999999997Q301.34999999999997 -28.799999999999997 298.34999999999997 -28.799999999999997H276.44999999999993V-11.1H314.8499999999999Q316.6499999999999 -11.1 317.8499999999999 -11.925Q319.04999999999995 -12.75 319.04999999999995 -14.1H321.74999999999994V1.65H319.04999999999995Q319.04999999999995 0.3 317.8499999999999 0.15Q316.6499999999999 0.0 314.8499999999999 0.0H259.79999999999995V-2.6999999999999997Q260.54999999999995 -2.6999999999999997 261.29999999999995 -3.2249999999999996Q262.04999999999995 -3.75 262.04999999999995 -4.95V-61.05Q262.04999999999995 -62.25 261.29999999999995 -62.775Q260.54999999999995 -63.3 259.79999999999995 -63.3V-66.0H313.04999999999995Q317.69999999999993 -66.0 317.69999999999993 -68.7H320.3999999999999V-52.05Z M357.8999999999999 -4.95Q357.8999999999999 -2.6999999999999997 360.74999999999994 -2.6999999999999997V0.0H341.09999999999997V-2.6999999999999997Q343.49999999999994 -2.6999999999999997 343.49999999999994 -4.95V-61.05Q343.49999999999994 -63.3 341.09999999999997 -63.3V-66.0H360.74999999999994V-63.3Q357.8999999999999 -63.3 357.8999999999999 -61.05V-36.6Q362.99999999999994 -40.8 368.4 -45.075Q373.79999999999995 -49.35 378.15 -52.95Q382.49999999999994 -56.55 385.3499999999999 -59.025Q388.19999999999993 -61.5 388.19999999999993 -62.099999999999994Q388.19999999999993 -62.849999999999994 387.37499999999994 -63.3Q386.54999999999995 -63.75 385.79999999999995 -63.75V-66.0H410.54999999999995V-63.3Q408.74999999999994 -62.699999999999996 405.1499999999999 -59.849999999999994L380.09999999999997 -39.6L403.79999999999995 -10.2Q405.5999999999999 -7.949999999999999 407.69999999999993 -5.625Q409.79999999999995 -3.3 411.8999999999999 -2.6999999999999997V0.0H389.69999999999993V-2.6999999999999997Q391.3499999999999 -2.6999999999999997 391.3499999999999 -3.5999999999999996Q391.3499999999999 -4.2 390.67499999999995 -5.25Q389.99999999999994 -6.3 388.04999999999995 -8.549999999999999L369.59999999999997 -31.049999999999997L357.8999999999999 -21.75Z"/>
<path fill="#007AFF" d="M428.67346281956395 -2.6999999999999997Q429.4636551984286 -2.85 430.1092323350226 -3.3Q430.7548094716167 -3.75 431.196925639128 -5.3999999999999995L445.90733630359665 -60.3Q446.47002960770203 -62.4 446.215606744296 -62.849999999999994Q445.96118388089 -63.3 444.91118388089 -63.3L445.634646700454 -66.0H466.48464670045405L465.76118388089003 -63.3Q464.26118388089003 -63.3 463.899452471108 -61.949999999999996Q463.7386829556493 -61.349999999999994 464.002432493029 -60.375Q464.26618203040863 -59.4 464.8338734840326 -57.599999999999994L474.0905882394822 -23.849999999999998L501.54368110516793 -57.449999999999996Q503.075989651544 -59.25 503.97743249302897 -60.375Q504.87887533451396 -61.5 504.999452471108 -61.949999999999996Q505.36118388089 -63.3 504.16118388089 -63.3L504.884646700454 -66.0H526.034646700454L525.31118388089 -63.3Q524.56118388089 -63.3 523.7857029337283 -62.925Q523.0102219865666 -62.55 522.6886829556493 -61.349999999999994L507.576348502534 -4.95Q507.2548094716167 -3.75 507.7891361455903 -3.2249999999999996Q508.323462819564 -2.6999999999999997 509.073462819564 -2.6999999999999997L508.3499999999999 0.0H490.94999999999993L491.67346281956395 -2.6999999999999997Q494.823462819564 -2.6999999999999997 494.976348502534 -4.95L506.2704069635058 -47.1H505.9704069635058L467.84999999999997 0.0H466.6499999999999L455.12040696350584 -47.1H455.2704069635058H454.9704069635058L443.676348502534 -4.95Q443.073462819564 -2.6999999999999997 445.623462819564 -2.6999999999999997L444.8999999999999 0.0H427.94999999999993Z M582.1015649376566 -55.8Q577.3015649376566 -55.8 572.3045449595776 -54.224999999999994Q567.3075249814985 -52.65 562.9237735936375 -49.724999999999994Q558.5400222057765 -46.8 555.2396355975658 -42.599999999999994Q551.9392489893551 -38.4 550.492323350227 -33.0Q549.045397711099 -27.599999999999998 550.0950111028883 -23.4Q551.1446244946775 -19.2 553.9608731068165 -16.275Q556.7771217189554 -13.35 560.9301017408764 -11.774999999999999Q565.0830817627974 -10.2 569.8830817627975 -10.2Q574.6830817627974 -10.2 579.6801017408765 -11.774999999999999Q584.6771217189555 -13.35 589.0608731068165 -16.275Q593.4446244946776 -19.2 596.7450111028883 -23.4Q600.045397711099 -27.599999999999998 601.492323350227 -33.0Q602.9392489893551 -38.4 601.8896355975658 -42.599999999999994Q600.8400222057764 -46.8 598.0237735936375 -49.724999999999994Q595.2075249814986 -52.65 591.0545449595777 -54.224999999999994Q586.9015649376566 -55.8 582.1015649376566 -55.8ZM585.0758009736421 -66.89999999999999Q593.3258009736421 -66.89999999999999 600.0381076695368 -64.8Q606.7504143654314 -62.699999999999996 611.0250277572206 -58.5Q615.29964114901 -54.3 616.7414650472615 -47.925Q618.1832889455131 -41.55 615.892323350227 -33.0Q613.6013577549409 -24.45 608.7431816531926 -18.075Q603.8850055514441 -11.7 597.3596189432334 -7.5Q590.8342323350226 -3.3 583.0568275992143 -1.4249999999999998Q575.279422863406 0.44999999999999996 567.029422863406 0.44999999999999996Q558.779422863406 0.44999999999999996 552.0068275992144 -1.4249999999999998Q545.2342323350226 -3.3 540.9596189432334 -7.5Q536.6850055514441 -11.7 535.2431816531926 -18.075Q533.8013577549409 -24.45 536.092323350227 -33.0Q538.3832889455131 -41.55 543.2414650472615 -47.925Q548.0996411490099 -54.3 554.6250277572207 -58.5Q561.1504143654314 -62.699999999999996 568.9881076695367 -64.8Q576.8258009736421 -66.89999999999999 585.0758009736421 -66.89999999999999Z M640.9234628195641 -2.6999999999999997Q641.673462819564 -2.6999999999999997 642.5641361455903 -3.2249999999999996Q643.4548094716167 -3.75 643.776348502534 -4.95L657.1604106644686 -54.9H637.6604106644686Q636.4604106644686 -54.9 635.2496411490099 -54.3Q634.0388716335513 -53.699999999999996 633.6771402237692 -52.35H630.9771402237692L635.5992637932061 -69.6H638.2992637932061Q637.7365704891008 -67.5 638.5856085947775 -66.75Q639.4346467004541 -66.0 640.634646700454 -66.0H694.0346467004541Q695.234646700454 -66.0 696.4856085947774 -66.75Q697.7365704891008 -67.5 698.2992637932061 -69.6H700.9992637932062L696.3771402237693 -52.35H693.6771402237692Q694.0388716335513 -53.699999999999996 693.14964114901 -54.3Q692.2604106644686 -54.9 691.0604106644686 -54.9H671.5604106644686L658.176348502534 -4.95Q657.573462819564 -2.6999999999999997 660.273462819564 -2.6999999999999997L659.55 0.0H640.1999999999999Z M700.473462819564 -2.6999999999999997Q702.873462819564 -2.6999999999999997 703.9141361455904 -3.2249999999999996Q704.9548094716167 -3.75 705.276348502534 -4.95L720.3082981979201 -61.05Q720.6298372288373 -62.25 719.8705105548637 -62.775Q719.11118388089 -63.3 716.7111838808901 -63.3L717.4346467004541 -66.0H740.234646700454L739.51118388089 -63.3Q735.3111838808901 -63.3 734.70829819792 -61.05L719.6763485025341 -4.95Q719.073462819564 -2.6999999999999997 723.273462819564 -2.6999999999999997L722.55 0.0H699.75Z M796.0015649376566 -55.8Q791.2015649376566 -55.8 786.2045449595776 -54.224999999999994Q781.2075249814985 -52.65 776.8237735936375 -49.724999999999994Q772.4400222057765 -46.8 769.1396355975658 -42.599999999999994Q765.839248989355 -38.4 764.392323350227 -33.0Q762.945397711099 -27.599999999999998 763.9950111028882 -23.4Q765.0446244946775 -19.2 767.8608731068164 -16.275Q770.6771217189554 -13.35 774.8301017408764 -11.774999999999999Q778.9830817627974 -10.2 783.7830817627975 -10.2Q788.5830817627974 -10.2 793.5801017408764 -11.774999999999999Q798.5771217189555 -13.35 802.9608731068165 -16.275Q807.3446244946775 -19.2 810.6450111028882 -23.4Q813.945397711099 -27.599999999999998 815.392323350227 -33.0Q816.839248989355 -38.4 815.7896355975658 -42.599999999999994Q814.7400222057765 -46.8 811.9237735936375 -49.724999999999994Q809.1075249814985 -52.65 804.9545449595776 -54.224999999999994Q800.8015649376566 -55.8 796.0015649376566 -55.8ZM798.9758009736421 -66.89999999999999Q807.2258009736421 -66.89999999999999 813.9381076695367 -64.8Q820.6504143654313 -62.699999999999996 824.9250277572206 -58.5Q829.19964114901 -54.3 830.6414650472616 -47.925Q832.0832889455131 -41.55 829.792323350227 -33.0Q827.501357754941 -24.45 822.6431816531925 -18.075Q817.7850055514441 -11.7 811.2596189432334 -7.5Q804.7342323350226 -3.3 796.9568275992143 -1.4249999999999998Q789.179422863406 0.44999999999999996 780.929422863406 0.44999999999999996Q772.679422863406 0.44999999999999996 765.9068275992144 -1.4249999999999998Q759.1342323350227 -3.3 754.8596189432334 -7.5Q750.585005551444 -11.7 749.1431816531924 -18.075Q747.7013577549409 -24.45 749.992323350227 -33.0Q752.283288945513 -41.55 757.1414650472615 -47.925Q761.9996411490099 -54.3 768.5250277572206 -58.5Q775.0504143654314 -62.699999999999996 782.8881076695368 -64.8Q790.7258009736421 -66.89999999999999 798.9758009736421 -66.89999999999999Z M838.923462819564 -2.6999999999999997Q841.623462819564 -2.6999999999999997 842.226348502534 -4.95L857.25829819792 -61.05Q857.86118388089 -63.3 855.16118388089 -63.3L855.884646700454 -66.0H877.9346467004541L877.2111838808901 -63.3Q876.1209915020254 -63.15 875.9602219865667 -62.55Q875.7592600922434 -61.8 878.1750277572206 -58.5L903.9661635255949 -20.4L914.85829819792 -61.05Q915.4611838808901 -63.3 912.4611838808901 -63.3L913.1846467004541 -66.0H931.484646700454L930.76118388089 -63.3Q928.06118388089 -63.3 927.4582981979199 -61.05L912.426348502534 -4.95Q911.8234628195639 -2.6999999999999997 914.523462819564 -2.6999999999999997L913.8 0.0H894.3L895.023462819564 -2.6999999999999997Q896.0734628195639 -2.6999999999999997 896.2744247138874 -3.4499999999999997Q896.435194229346 -4.05 895.4121180179927 -5.55Q894.3890418066394 -7.05 893.11154273188 -9.0L866.5223307521525 -48.6L854.826348502534 -4.95Q854.223462819564 -2.6999999999999997 857.373462819564 -2.6999999999999997L856.65 0.0H838.1999999999999Z"/>
</svg>